<svg xmlns="http://www.w3.org/2000/svg" viewBox="0 0 1200 760" role="img" aria-labelledby="title">
<title>Komfortowe wnętrze</title>
<defs>
<linearGradient id="sky" x1="0" y1="0" x2="1" y2="1"><stop stop-color="#f5f6f7"/><stop offset="1" stop-color="#cfd5dc"/></linearGradient>
<linearGradient id="night" x1="0" y1="0" x2="1" y2="1"><stop stop-color="#071018"/><stop offset="1" stop-color="#1d2730"/></linearGradient>
<filter id="shadow"><feDropShadow dx="0" dy="28" stdDeviation="30" flood-opacity=".22"/></filter>
<pattern id="bricks" width="70" height="38" patternUnits="userSpaceOnUse"><rect width="70" height="38" fill="#b64a2b"/><path d="M0 19H70M35 0V19M0 19V38M70 19V38" stroke="#da7658" stroke-width="3" opacity=".55"/></pattern>
</defs>
<rect width="1200" height="760" fill="url(#sky)"/>
<circle cx="980" cy="120" r="260" fill="#ff4d16" opacity=".12"/>
<rect x="115" y="115" width="970" height="530" rx="28" fill="#f8f5ef" filter="url(#shadow)"/><rect x="115" y="115" width="420" height="530" fill="#e5d6c4"/><rect x="610" y="210" width="260" height="190" fill="#dfe6eb"/><rect x="180" y="420" width="460" height="110" rx="28" fill="#ffffff"/><rect x="700" y="440" width="170" height="86" rx="12" fill="#141b22"/><circle cx="500" cy="450" r="48" fill="#ff4d16" opacity=".28"/><path d="M185 165H1020" stroke="#d8c4af" stroke-width="16"/><path d="M535 115V645" stroke="#c2a98d" stroke-width="16"/><text x="70" y="92" fill="#111820" font-family="Arial" font-size="44" font-weight="900">Komfortowe wnętrze</text></svg>