<svg xmlns="http://www.w3.org/2000/svg" viewBox="0 0 1200 760" role="img" aria-labelledby="title">
<title>Montaż dźwigiem</title>
<defs>
<linearGradient id="sky" x1="0" y1="0" x2="1" y2="1"><stop stop-color="#f5f6f7"/><stop offset="1" stop-color="#cfd5dc"/></linearGradient>
<linearGradient id="night" x1="0" y1="0" x2="1" y2="1"><stop stop-color="#071018"/><stop offset="1" stop-color="#1d2730"/></linearGradient>
<filter id="shadow"><feDropShadow dx="0" dy="28" stdDeviation="30" flood-opacity=".22"/></filter>
<pattern id="bricks" width="70" height="38" patternUnits="userSpaceOnUse"><rect width="70" height="38" fill="#b64a2b"/><path d="M0 19H70M35 0V19M0 19V38M70 19V38" stroke="#da7658" stroke-width="3" opacity=".55"/></pattern>
</defs>
<rect width="1200" height="760" fill="url(#sky)"/>
<circle cx="980" cy="120" r="260" fill="#ff4d16" opacity=".12"/>
<g filter="url(#shadow)"><rect x="320" y="330" width="520" height="270" rx="8" fill="#2f353a"/><rect x="365" y="250" width="220" height="350" fill="url(#bricks)"/><rect x="610" y="290" width="245" height="310" fill="url(#bricks)"/><rect x="450" y="365" width="95" height="125" fill="#1d2328"/><rect x="685" y="380" width="90" height="220" fill="#1d2328"/><rect x="300" y="600" width="590" height="34" fill="#15191e"/></g>
<path d="M170 170H630" stroke="#111820" stroke-width="12"/><path d="M245 170L390 620" stroke="#111820" stroke-width="12"/><path d="M510 170L735 250" stroke="#111820" stroke-width="10"/><path d="M735 250V330" stroke="#ff4d16" stroke-width="8"/><rect x="705" y="330" width="260" height="140" rx="10" fill="url(#bricks)" stroke="#202830" stroke-width="10"/>
<g transform="translate(760 540)"><rect x="0" y="65" width="290" height="82" rx="25" fill="#070a0e"/><rect x="32" y="24" width="190" height="80" rx="18" fill="#151b21"/><circle cx="64" cy="148" r="34" fill="#111" stroke="#343a40" stroke-width="10"/><circle cx="236" cy="148" r="34" fill="#111" stroke="#343a40" stroke-width="10"/><text x="83" y="95" fill="white" font-family="Arial" font-size="40" font-weight="900">WALL</text><rect x="210" y="50" width="46" height="46" fill="#ff4d16"/></g><text x="70" y="92" fill="#111820" font-family="Arial" font-size="44" font-weight="900">Montaż dźwigiem</text></svg>