<svg xmlns="http://www.w3.org/2000/svg" viewBox="0 0 1200 760" role="img" aria-labelledby="title">
<title>AI analizuje projekt</title>
<defs>
<linearGradient id="sky" x1="0" y1="0" x2="1" y2="1"><stop stop-color="#f5f6f7"/><stop offset="1" stop-color="#cfd5dc"/></linearGradient>
<linearGradient id="night" x1="0" y1="0" x2="1" y2="1"><stop stop-color="#071018"/><stop offset="1" stop-color="#1d2730"/></linearGradient>
<filter id="shadow"><feDropShadow dx="0" dy="28" stdDeviation="30" flood-opacity=".22"/></filter>
<pattern id="bricks" width="70" height="38" patternUnits="userSpaceOnUse"><rect width="70" height="38" fill="#b64a2b"/><path d="M0 19H70M35 0V19M0 19V38M70 19V38" stroke="#da7658" stroke-width="3" opacity=".55"/></pattern>
</defs>
<rect width="1200" height="760" fill="url(#night)"/>
<circle cx="980" cy="120" r="260" fill="#ff4d16" opacity=".12"/>
<g fill="none" stroke="#6bbcff" opacity=".45"><path d="M140 600H1050M220 540H980M280 470H900M360 390H820"/><path d="M220 540V250M980 540V250M360 390V180M820 390V180"/><path d="M220 250L500 125L980 250L760 320L360 180Z"/></g><g filter="url(#shadow)"><rect x="360" y="325" width="450" height="235" fill="url(#bricks)"/><path d="M320 325L560 205L850 325Z" fill="#f3f6f8"/><rect x="470" y="395" width="90" height="105" fill="#141b22"/><rect x="640" y="390" width="100" height="160" fill="#141b22"/></g><circle cx="945" cy="195" r="54" fill="#ff4d16" opacity=".9"/><text x="912" y="210" font-family="Arial" font-size="34" fill="white" font-weight="900">AI</text><text x="70" y="92" fill="white" font-family="Arial" font-size="44" font-weight="900">AI analizuje projekt</text></svg>