<svg xmlns="http://www.w3.org/2000/svg" viewBox="0 0 1200 760" role="img" aria-labelledby="title">
<title>Montaż detali</title>
<defs>
<linearGradient id="sky" x1="0" y1="0" x2="1" y2="1"><stop stop-color="#f5f6f7"/><stop offset="1" stop-color="#cfd5dc"/></linearGradient>
<linearGradient id="night" x1="0" y1="0" x2="1" y2="1"><stop stop-color="#071018"/><stop offset="1" stop-color="#1d2730"/></linearGradient>
<filter id="shadow"><feDropShadow dx="0" dy="28" stdDeviation="30" flood-opacity=".22"/></filter>
<pattern id="bricks" width="70" height="38" patternUnits="userSpaceOnUse"><rect width="70" height="38" fill="#b64a2b"/><path d="M0 19H70M35 0V19M0 19V38M70 19V38" stroke="#da7658" stroke-width="3" opacity=".55"/></pattern>
</defs>
<rect width="1200" height="760" fill="url(#sky)"/>
<circle cx="980" cy="120" r="260" fill="#ff4d16" opacity=".12"/>
<g filter="url(#shadow)"><rect x="150" y="180" width="430" height="430" rx="12" fill="#bfc5ca"/><rect x="580" y="140" width="470" height="470" rx="12" fill="url(#bricks)"/><path d="M580 140L150 610H580Z" fill="#8d949b" opacity=".55"/><rect x="300" y="275" width="120" height="185" fill="#1d2328"/><rect x="710" y="265" width="135" height="285" fill="#1d2328"/><rect x="320" y="295" width="80" height="145" fill="#dfe6eb"/><rect x="732" y="287" width="92" height="263" fill="#dfe6eb"/></g><text x="70" y="92" fill="#111820" font-family="Arial" font-size="44" font-weight="900">Montaż detali</text></svg>