<svg xmlns="http://www.w3.org/2000/svg" width="1200" height="760" viewBox="0 0 1200 760" role="img" aria-labelledby="title desc">
  <title id="title">Wnętrze domu po montażu konstrukcji</title>
  <desc id="desc">Brandowana scena WALL: prefabrykowane elementy z cegły, budowa, transport i realizacja.</desc>
  <defs>
    <linearGradient id="sky" x1="0" y1="0" x2="0" y2="1"><stop stop-color="#d7d0c8"/><stop offset="1" stop-color="#786d64"/></linearGradient>
    <radialGradient id="sun" cx="78%" cy="16%" r="30%"><stop stop-color="#fff1c7" stop-opacity=".92"/><stop offset="1" stop-color="#fff1c7" stop-opacity="0"/></radialGradient>
    <filter id="grain"><feTurbulence type="fractalNoise" baseFrequency=".85" numOctaves="2" seed="8"/><feColorMatrix type="saturate" values="0"/><feComponentTransfer><feFuncA type="table" tableValues="0 .18"/></feComponentTransfer></filter>
    <filter id="shadow" x="-20%" y="-20%" width="140%" height="140%"><feDropShadow dx="0" dy="18" stdDeviation="20" flood-color="#000" flood-opacity=".28"/></filter>
    <pattern id="brickPattern" width="96" height="44" patternUnits="userSpaceOnUse">
      <rect width="96" height="44" fill="#d4c6b5"/><rect x="2" y="2" width="44" height="18" rx="1" fill="#a64826"/><rect x="50" y="2" width="44" height="18" rx="1" fill="#b9572f"/><rect x="-22" y="24" width="44" height="18" rx="1" fill="#93411f"/><rect x="26" y="24" width="44" height="18" rx="1" fill="#a64826"/><rect x="74" y="24" width="44" height="18" rx="1" fill="#c36536"/>
    </pattern>
    <linearGradient id="metal" x1="0" y1="0" x2="1" y2="1"><stop stop-color="#eef2f3"/><stop offset=".45" stop-color="#66727a"/><stop offset="1" stop-color="#252b30"/></linearGradient>
  </defs>
  <rect width="1200" height="760" fill="url(#sky)"/>
  <rect width="1200" height="760" fill="url(#sun)"/>
  <rect y="500" width="1200" height="260" fill="#5a4d43"/>
  <rect x="0" y="0" width="1200" height="430" rx="8" fill="url(#brickPattern)" opacity="0.78" filter="url(#shadow)"/><rect y="392" width="1200" height="368" fill="#5a4d43"/><rect x="122" y="190" width="360" height="275" fill="#22323a"/><rect x="610" y="180" width="450" height="330" rx="16" fill="#e9e4dc"/><rect x="650" y="220" width="370" height="250" fill="#304852"/><g transform="translate(70 70) scale(0.65)" fill="#ff4d16">
      <rect width="44" height="30" rx="3"/><rect x="56" width="44" height="30" rx="3"/><rect x="112" width="44" height="30" rx="3"/>
      <rect y="30" width="44" height="30" rx="3"/><rect x="112" y="30" width="44" height="30" rx="3"/><rect x="56" y="60" width="44" height="24" rx="3"/>
    </g>
  <rect width="1200" height="760" filter="url(#grain)" opacity=".7"/>
</svg>
