<svg xmlns="http://www.w3.org/2000/svg" width="1200" height="760" viewBox="0 0 1200 760" role="img" aria-labelledby="title desc">
  <title id="title">Detal połączenia prefabrykatów</title>
  <desc id="desc">Brandowana scena WALL: prefabrykowane elementy z cegły, budowa, transport i realizacja.</desc>
  <defs>
    <linearGradient id="sky" x1="0" y1="0" x2="0" y2="1"><stop stop-color="#dceaf2"/><stop offset="1" stop-color="#98aebb"/></linearGradient>
    <radialGradient id="sun" cx="78%" cy="16%" r="30%"><stop stop-color="#fff1c7" stop-opacity=".92"/><stop offset="1" stop-color="#fff1c7" stop-opacity="0"/></radialGradient>
    <filter id="grain"><feTurbulence type="fractalNoise" baseFrequency=".85" numOctaves="2" seed="8"/><feColorMatrix type="saturate" values="0"/><feComponentTransfer><feFuncA type="table" tableValues="0 .18"/></feComponentTransfer></filter>
    <filter id="shadow" x="-20%" y="-20%" width="140%" height="140%"><feDropShadow dx="0" dy="18" stdDeviation="20" flood-color="#000" flood-opacity=".28"/></filter>
    <pattern id="brickPattern" width="96" height="44" patternUnits="userSpaceOnUse">
      <rect width="96" height="44" fill="#d4c6b5"/><rect x="2" y="2" width="44" height="18" rx="1" fill="#a64826"/><rect x="50" y="2" width="44" height="18" rx="1" fill="#b9572f"/><rect x="-22" y="24" width="44" height="18" rx="1" fill="#93411f"/><rect x="26" y="24" width="44" height="18" rx="1" fill="#a64826"/><rect x="74" y="24" width="44" height="18" rx="1" fill="#c36536"/>
    </pattern>
    <linearGradient id="metal" x1="0" y1="0" x2="1" y2="1"><stop stop-color="#eef2f3"/><stop offset=".45" stop-color="#66727a"/><stop offset="1" stop-color="#252b30"/></linearGradient>
  </defs>
  <rect width="1200" height="760" fill="url(#sky)"/>
  <rect width="1200" height="760" fill="url(#sun)"/>
  <rect y="500" width="1200" height="260" fill="#75685b"/>
  <rect x="92" y="76" width="1000" height="585" rx="8" fill="url(#brickPattern)" opacity="1" filter="url(#shadow)"/><rect x="420" y="270" width="305" height="340" fill="#263943"/><path d="M420 270 725 610M725 270 420 610" stroke="#ff4d16" stroke-width="12" opacity=".9"/>
  <rect width="1200" height="760" filter="url(#grain)" opacity=".7"/>
</svg>
