<svg xmlns="http://www.w3.org/2000/svg" width="1200" height="760" viewBox="0 0 1200 760" role="img" aria-labelledby="title desc">
  <title id="title">Budowa domu z prefabrykatów WALL</title>
  <desc id="desc">Brandowana scena WALL: prefabrykowane elementy z cegły, budowa, transport i realizacja.</desc>
  <defs>
    <linearGradient id="sky" x1="0" y1="0" x2="0" y2="1"><stop stop-color="#dceaf2"/><stop offset="1" stop-color="#98aebb"/></linearGradient>
    <radialGradient id="sun" cx="78%" cy="16%" r="30%"><stop stop-color="#fff1c7" stop-opacity=".92"/><stop offset="1" stop-color="#fff1c7" stop-opacity="0"/></radialGradient>
    <filter id="grain"><feTurbulence type="fractalNoise" baseFrequency=".85" numOctaves="2" seed="8"/><feColorMatrix type="saturate" values="0"/><feComponentTransfer><feFuncA type="table" tableValues="0 .18"/></feComponentTransfer></filter>
    <filter id="shadow" x="-20%" y="-20%" width="140%" height="140%"><feDropShadow dx="0" dy="18" stdDeviation="20" flood-color="#000" flood-opacity=".28"/></filter>
    <pattern id="brickPattern" width="96" height="44" patternUnits="userSpaceOnUse">
      <rect width="96" height="44" fill="#d4c6b5"/><rect x="2" y="2" width="44" height="18" rx="1" fill="#a64826"/><rect x="50" y="2" width="44" height="18" rx="1" fill="#b9572f"/><rect x="-22" y="24" width="44" height="18" rx="1" fill="#93411f"/><rect x="26" y="24" width="44" height="18" rx="1" fill="#a64826"/><rect x="74" y="24" width="44" height="18" rx="1" fill="#c36536"/>
    </pattern>
    <linearGradient id="metal" x1="0" y1="0" x2="1" y2="1"><stop stop-color="#eef2f3"/><stop offset=".45" stop-color="#66727a"/><stop offset="1" stop-color="#252b30"/></linearGradient>
  </defs>
  <rect width="1200" height="760" fill="url(#sky)"/>
  <rect width="1200" height="760" fill="url(#sun)"/>
  <rect y="500" width="1200" height="260" fill="#75685b"/>
  <g opacity=".6" stroke="#343a40" stroke-linecap="round">
      <line x1="830" y1="62" x2="830" y2="585" stroke-width="10"/><line x1="310" y1="100" x2="1090" y2="86" stroke-width="8"/>
      <line x1="798" y1="62" x2="862" y2="96" stroke-width="3"/><line x1="862" y1="62" x2="798" y2="96" stroke-width="3"/><line x1="798" y1="104" x2="862" y2="138" stroke-width="3"/><line x1="862" y1="104" x2="798" y2="138" stroke-width="3"/><line x1="798" y1="146" x2="862" y2="180" stroke-width="3"/><line x1="862" y1="146" x2="798" y2="180" stroke-width="3"/><line x1="798" y1="188" x2="862" y2="222" stroke-width="3"/><line x1="862" y1="188" x2="798" y2="222" stroke-width="3"/><line x1="798" y1="230" x2="862" y2="264" stroke-width="3"/><line x1="862" y1="230" x2="798" y2="264" stroke-width="3"/><line x1="798" y1="272" x2="862" y2="306" stroke-width="3"/><line x1="862" y1="272" x2="798" y2="306" stroke-width="3"/><line x1="798" y1="314" x2="862" y2="348" stroke-width="3"/><line x1="862" y1="314" x2="798" y2="348" stroke-width="3"/><line x1="798" y1="356" x2="862" y2="390" stroke-width="3"/><line x1="862" y1="356" x2="798" y2="390" stroke-width="3"/><line x1="798" y1="398" x2="862" y2="432" stroke-width="3"/><line x1="862" y1="398" x2="798" y2="432" stroke-width="3"/><line x1="798" y1="440" x2="862" y2="474" stroke-width="3"/><line x1="862" y1="440" x2="798" y2="474" stroke-width="3"/><line x1="798" y1="482" x2="862" y2="516" stroke-width="3"/><line x1="862" y1="482" x2="798" y2="516" stroke-width="3"/><line x1="798" y1="524" x2="862" y2="558" stroke-width="3"/><line x1="862" y1="524" x2="798" y2="558" stroke-width="3"/>
      <line x1="640" y1="97" x2="640" y2="330" stroke-width="4"/>
      <rect x="618" y="330" width="44" height="36" rx="6" fill="#ff4d16" stroke="none" opacity=".95"/>
    </g><path d="M95 365 305 270 570 330 825 258 1040 350 1030 390H95z" fill="#303940" opacity=".72"/><rect x="135" y="305" width="610" height="250" rx="8" fill="url(#brickPattern)" opacity="1" filter="url(#shadow)"/><rect x="275" y="225" width="470" height="130" rx="8" fill="url(#brickPattern)" opacity="0.95" filter="url(#shadow)"/><g transform="translate(250 520)"><circle cx="0" cy="0" r="13" fill="#e6a342"/><path d="M-20 16h40l-6 54h-28z" fill="#ff4d16"/><path d="M-13 30l-35 42M13 30l35 42M-8 68l-18 64M8 68l22 64" stroke="#111" stroke-width="8" stroke-linecap="round"/></g><g transform="translate(560 535)"><circle cx="0" cy="0" r="13" fill="#e6a342"/><path d="M-20 16h40l-6 54h-28z" fill="#ff4d16"/><path d="M-13 30l-35 42M13 30l35 42M-8 68l-18 64M8 68l22 64" stroke="#111" stroke-width="8" stroke-linecap="round"/></g><g transform="translate(725 512)"><circle cx="0" cy="0" r="13" fill="#e6a342"/><path d="M-20 16h40l-6 54h-28z" fill="#ff4d16"/><path d="M-13 30l-35 42M13 30l35 42M-8 68l-18 64M8 68l22 64" stroke="#111" stroke-width="8" stroke-linecap="round"/></g><g transform="translate(72 76) scale(1.15)">
      <g transform="translate(0 0) scale(0.7)" fill="#ff4d16">
      <rect width="44" height="30" rx="3"/><rect x="56" width="44" height="30" rx="3"/><rect x="112" width="44" height="30" rx="3"/>
      <rect y="30" width="44" height="30" rx="3"/><rect x="112" y="30" width="44" height="30" rx="3"/><rect x="56" y="60" width="44" height="24" rx="3"/>
    </g>
      <text x="120" y="54" font-family="Arial Black, Impact, sans-serif" font-size="66" font-weight="900" fill="#070a0e" letter-spacing="-4">WALL</text>
      <text x="124" y="84" font-family="Arial, sans-serif" font-size="18" font-weight="700" fill="#070a0e" opacity=".78" letter-spacing="2">WHEN STRENGTH MATTERS</text>
    </g><g transform="translate(650 465) scale(0.82)" filter="url(#shadow)">
      <path d="M42 148 90 72 248 48 392 76 458 144 436 202H58z" fill="#050608"/><path d="M96 82h132l-20 54H72zM244 76h120l44 60H230z" fill="#20313c"/>
      <path d="M125 142h190v48H115zM318 138l120 14-10 38H315z" fill="#ff4d16" opacity=".9"/>
      <g transform="translate(190 148) scale(0.25)" fill="#ff4d16">
      <rect width="44" height="30" rx="3"/><rect x="56" width="44" height="30" rx="3"/><rect x="112" width="44" height="30" rx="3"/>
      <rect y="30" width="44" height="30" rx="3"/><rect x="112" y="30" width="44" height="30" rx="3"/><rect x="56" y="60" width="44" height="24" rx="3"/>
    </g><text x="248" y="180" fill="#f7efe5" font-family="Arial Black, Impact" font-size="34" font-weight="900">WALL</text>
      <circle cx="112" cy="205" r="44" fill="#060606"/><circle cx="112" cy="205" r="22" fill="#444"/><circle cx="372" cy="205" r="44" fill="#060606"/><circle cx="372" cy="205" r="22" fill="#444"/>
      <rect x="35" y="162" width="34" height="16" fill="#f2f3e9"/><rect x="438" y="155" width="22" height="28" fill="#d51d14"/>
    </g>
  <rect width="1200" height="760" filter="url(#grain)" opacity=".7"/>
</svg>
