<svg xmlns="http://www.w3.org/2000/svg" width="1200" height="760" viewBox="0 0 1200 760" role="img" aria-labelledby="title desc">
  <title id="title">Samochód firmowy WALL w transporcie</title>
  <desc id="desc">Brandowana scena WALL: prefabrykowane elementy z cegły, budowa, transport i realizacja.</desc>
  <defs>
    <linearGradient id="sky" x1="0" y1="0" x2="0" y2="1"><stop stop-color="#dceaf2"/><stop offset="1" stop-color="#98aebb"/></linearGradient>
    <radialGradient id="sun" cx="78%" cy="16%" r="30%"><stop stop-color="#fff1c7" stop-opacity=".92"/><stop offset="1" stop-color="#fff1c7" stop-opacity="0"/></radialGradient>
    <filter id="grain"><feTurbulence type="fractalNoise" baseFrequency=".85" numOctaves="2" seed="8"/><feColorMatrix type="saturate" values="0"/><feComponentTransfer><feFuncA type="table" tableValues="0 .18"/></feComponentTransfer></filter>
    <filter id="shadow" x="-20%" y="-20%" width="140%" height="140%"><feDropShadow dx="0" dy="18" stdDeviation="20" flood-color="#000" flood-opacity=".28"/></filter>
    <pattern id="brickPattern" width="96" height="44" patternUnits="userSpaceOnUse">
      <rect width="96" height="44" fill="#d4c6b5"/><rect x="2" y="2" width="44" height="18" rx="1" fill="#a64826"/><rect x="50" y="2" width="44" height="18" rx="1" fill="#b9572f"/><rect x="-22" y="24" width="44" height="18" rx="1" fill="#93411f"/><rect x="26" y="24" width="44" height="18" rx="1" fill="#a64826"/><rect x="74" y="24" width="44" height="18" rx="1" fill="#c36536"/>
    </pattern>
    <linearGradient id="metal" x1="0" y1="0" x2="1" y2="1"><stop stop-color="#eef2f3"/><stop offset=".45" stop-color="#66727a"/><stop offset="1" stop-color="#252b30"/></linearGradient>
  </defs>
  <rect width="1200" height="760" fill="url(#sky)"/>
  <rect width="1200" height="760" fill="url(#sun)"/>
  <rect y="500" width="1200" height="260" fill="#75685b"/>
  <g transform="translate(110 380) scale(1.65)" filter="url(#shadow)">
      <path d="M42 148 90 72 248 48 392 76 458 144 436 202H58z" fill="#050608"/><path d="M96 82h132l-20 54H72zM244 76h120l44 60H230z" fill="#20313c"/>
      <path d="M125 142h190v48H115zM318 138l120 14-10 38H315z" fill="#ff4d16" opacity=".9"/>
      <g transform="translate(190 148) scale(0.25)" fill="#ff4d16">
      <rect width="44" height="30" rx="3"/><rect x="56" width="44" height="30" rx="3"/><rect x="112" width="44" height="30" rx="3"/>
      <rect y="30" width="44" height="30" rx="3"/><rect x="112" y="30" width="44" height="30" rx="3"/><rect x="56" y="60" width="44" height="24" rx="3"/>
    </g><text x="248" y="180" fill="#f7efe5" font-family="Arial Black, Impact" font-size="34" font-weight="900">WALL</text>
      <circle cx="112" cy="205" r="44" fill="#060606"/><circle cx="112" cy="205" r="22" fill="#444"/><circle cx="372" cy="205" r="44" fill="#060606"/><circle cx="372" cy="205" r="22" fill="#444"/>
      <rect x="35" y="162" width="34" height="16" fill="#f2f3e9"/><rect x="438" y="155" width="22" height="28" fill="#d51d14"/>
    </g><rect x="700" y="245" width="140" height="250" rx="8" fill="url(#brickPattern)" opacity="0.98" filter="url(#shadow)"/><rect x="738" y="315" width="70" height="92" fill="#273943"/><rect x="870" y="265" width="140" height="250" rx="8" fill="url(#brickPattern)" opacity="0.98" filter="url(#shadow)"/><rect x="908" y="335" width="70" height="92" fill="#273943"/><rect x="1040" y="245" width="140" height="250" rx="8" fill="url(#brickPattern)" opacity="0.98" filter="url(#shadow)"/><rect x="1078" y="315" width="70" height="92" fill="#273943"/><rect x="1210" y="265" width="140" height="250" rx="8" fill="url(#brickPattern)" opacity="0.98" filter="url(#shadow)"/><rect x="1248" y="335" width="70" height="92" fill="#273943"/><g transform="translate(850 90) scale(0.82)">
      <g transform="translate(0 0) scale(0.7)" fill="#ff4d16">
      <rect width="44" height="30" rx="3"/><rect x="56" width="44" height="30" rx="3"/><rect x="112" width="44" height="30" rx="3"/>
      <rect y="30" width="44" height="30" rx="3"/><rect x="112" y="30" width="44" height="30" rx="3"/><rect x="56" y="60" width="44" height="24" rx="3"/>
    </g>
      <text x="120" y="54" font-family="Arial Black, Impact, sans-serif" font-size="66" font-weight="900" fill="#070a0e" letter-spacing="-4">WALL</text>
      <text x="124" y="84" font-family="Arial, sans-serif" font-size="18" font-weight="700" fill="#070a0e" opacity=".78" letter-spacing="2">WHEN STRENGTH MATTERS</text>
    </g>
  <rect width="1200" height="760" filter="url(#grain)" opacity=".7"/>
</svg>
